<?xml version="1.0" encoding="UTF-8"?>
<svg version="1.1" xmlns="http://www.w3.org/2000/svg" width="1024" height="1024">
<path d="M0 0 C337.92 0 675.84 0 1024 0 C1024 337.92 1024 675.84 1024 1024 C686.08 1024 348.16 1024 0 1024 C0 686.08 0 348.16 0 0 Z " fill="#FEFEFE" transform="translate(0,0)"/>
<path d="M0 0 C89.43 0 178.86 0 271 0 C271 267.63 271 535.26 271 811 C181.57 811 92.14 811 0 811 C0 543.37 0 275.74 0 0 Z " fill="#1F3E5D" transform="translate(606,106)"/>
<path d="M0 0 C64.02 0 128.04 0 194 0 C194 183.15 194 366.3 194 555 C129.98 555 65.96 555 0 555 C0 371.85 0 188.7 0 0 Z " fill="#225B8E" transform="translate(364,363)"/>
<path d="M0 0 C62.37 0 124.74 0 189 0 C189 126.72 189 253.44 189 384 C126.63 384 64.26 384 0 384 C0 257.28 0 130.56 0 0 Z " fill="#3685BE" transform="translate(147,534)"/>
<path d="M0 0 C1.75570312 0.5259375 1.75570312 0.5259375 3.546875 1.0625 C29.17995779 9.26508649 50.65291191 29.17702908 63.1875 52.6875 C70.0423072 67.0289821 73.18709241 80.73301222 73.18530273 96.57519531 C73.18747982 98.73002157 73.20564337 100.88432717 73.22460938 103.0390625 C73.27152865 114.02333354 71.70808441 123.66056724 68.1875 134.0625 C67.92179199 134.84761963 67.65608398 135.63273926 67.38232422 136.44165039 C65.44845598 142.0054275 63.31464926 147.10251261 60 152 C59.43796875 152.84304687 58.8759375 153.68609375 58.296875 154.5546875 C47.19412998 170.48667527 31.90017635 187.61437166 13 194 C12.01 194 11.02 194 10 194 C10 194.66 10 195.32 10 196 C6.77508441 196.99899641 3.5490044 197.9937303 0.3203125 198.98046875 C-2.02085043 199.69934349 -4.35635001 200.43679068 -6.6875 201.1875 C-32.72129092 207.57314683 -61.88621653 201.92417046 -84.51953125 188.22265625 C-104.62042445 175.60978079 -120.0543522 157.51659837 -128 135 C-128.24121582 134.35240723 -128.48243164 133.70481445 -128.73095703 133.03759766 C-137.04814425 110.05719293 -135.91982772 79.69339507 -125.75952148 57.5390625 C-112.84423213 30.67687886 -91.70147634 11.75032963 -64 1 C-63.18789062 0.68160156 -62.37578125 0.36320312 -61.5390625 0.03515625 C-42.58828033 -6.84048854 -18.95291786 -6.45929039 0 0 Z " fill="#52B475" transform="translate(206,82)"/>
<path d="M0 0 C0 0.66 0 1.32 0 2 C0.61875 2.28875 1.2375 2.5775 1.875 2.875 C4 4 4 4 6 6 C6.73000419 9.11382316 6.59284951 11.8692629 6 15 C4.67889786 16.95644569 4.67889786 16.95644569 2.93609619 18.8253479 C2.29833504 19.51555653 1.66057388 20.20576515 1.00348663 20.91688919 C0.01176075 21.94802904 0.01176075 21.94802904 -1 23 C-1.59965828 23.62548107 -2.19931656 24.25096214 -2.8171463 24.89539719 C-4.70819967 26.83725967 -6.62048632 28.7557497 -8.54003906 30.66943359 C-9.25800659 31.38915344 -9.97597412 32.10887329 -10.71569824 32.85040283 C-13.06318384 35.20225039 -15.41426114 37.5504679 -17.765625 39.8984375 C-19.40767782 41.54116462 -21.04958223 43.1840401 -22.69134521 44.82705688 C-26.11910539 48.25628604 -29.5486546 51.68371306 -32.97949219 55.10986328 C-37.38015026 59.50480197 -41.77627341 63.90424521 -46.17108536 68.30502892 C-49.55438925 71.69194082 -52.94006437 75.07647423 -56.32646942 78.46028519 C-57.9491494 80.08229773 -59.57108589 81.70505442 -61.19226837 83.32856369 C-63.45161763 85.59044581 -65.71413589 87.8491091 -67.97753906 90.10693359 C-68.64771057 90.77912933 -69.31788208 91.45132507 -70.00836182 92.14389038 C-70.62501709 92.75772583 -71.24167236 93.37156128 -71.87701416 94.0039978 C-72.4108585 94.53746511 -72.94470284 95.07093243 -73.49472427 95.62056541 C-75.93165857 97.85377185 -77.83075149 98.96200544 -81.0625 99.6875 C-90.74332354 97.99719748 -99.94586411 85.20960361 -106.80786133 78.32250977 C-108.58754755 76.53737578 -110.37263355 74.75776288 -112.15820312 72.97851562 C-113.29459232 71.84146704 -114.43067203 70.70410905 -115.56640625 69.56640625 C-116.09859268 69.03624405 -116.63077911 68.50608185 -117.17909241 67.95985413 C-120.60128875 64.51556111 -122.16542752 62.59783699 -122.4375 57.75 C-122.38523679 54.15545238 -121.89201304 52.15363404 -119.5 49.4375 C-116.65070258 47.08083812 -113.98491392 45.90567162 -110.17578125 46.25 C-104.39630373 48.24220769 -100.30188502 53.61288253 -96.15380859 57.91455078 C-94.82126399 59.2955873 -93.48486059 60.67291012 -92.14477539 62.04663086 C-90.80891909 63.42124039 -89.48614796 64.80870062 -88.17749023 66.20922852 C-87.25818726 67.16140259 -87.25818726 67.16140259 -86.3203125 68.1328125 C-85.50457764 68.99737061 -85.50457764 68.99737061 -84.67236328 69.87939453 C-83.0654213 71.22357195 -83.0654213 71.22357195 -81.08784771 70.74364567 C-78.73498303 69.90560675 -77.65428011 69.00447599 -75.92207336 67.22227478 C-75.34059036 66.63190933 -74.75910736 66.04154388 -74.16000366 65.43328857 C-73.53397247 64.78233215 -72.90794128 64.13137573 -72.26293945 63.46069336 C-71.59406204 62.77779739 -70.92518463 62.09490143 -70.23603821 61.39131165 C-68.78369967 59.90746293 -67.3346326 58.42040682 -65.88845253 56.93055534 C-63.59707286 54.57316845 -61.2940102 52.22783038 -58.98686218 49.88587952 C-52.42802942 43.22620503 -45.88146361 36.55486918 -39.36645508 29.85229492 C-35.38063146 25.75344538 -31.37311321 21.67691594 -27.35088158 17.61380196 C-25.82311598 16.06188684 -24.303722 14.50168367 -22.79302406 12.93314934 C-20.6770413 10.73760765 -18.53455617 8.57155723 -16.3840332 6.40991211 C-15.76812317 5.75693146 -15.15221313 5.10395081 -14.51763916 4.43118286 C-9.88435042 -0.13958651 -6.41929306 -0.84637017 0 0 Z " fill="#FBFDFA" transform="translate(234,132)"/>
<path d="M0 0 C8.91 0 17.82 0 27 0 C27 12.87 27 25.74 27 39 C18.09 39 9.18 39 0 39 C0 26.13 0 13.26 0 0 Z " fill="#F1F3F4" transform="translate(755,640)"/>
<path d="M0 0 C8.91 0 17.82 0 27 0 C27 12.87 27 25.74 27 39 C18.09 39 9.18 39 0 39 C0 26.13 0 13.26 0 0 Z " fill="#F1F4F5" transform="translate(649,640)"/>
<path d="M0 0 C8.91 0 17.82 0 27 0 C27 12.87 27 25.74 27 39 C18.09 39 9.18 39 0 39 C0 26.13 0 13.26 0 0 Z " fill="#F0F3F5" transform="translate(649,499)"/>
<path d="M0 0 C8.91 0 17.82 0 27 0 C27 12.87 27 25.74 27 39 C18.09 39 9.18 39 0 39 C0 26.13 0 13.26 0 0 Z " fill="#F2F5F6" transform="translate(649,287)"/>
<path d="M0 0 C8.91 0 17.82 0 27 0 C27 12.87 27 25.74 27 39 C22.730625 39.020625 18.46125 39.04125 14.0625 39.0625 C12.04008179 39.07615601 12.04008179 39.07615601 9.97680664 39.09008789 C8.3969397 39.09383423 8.3969397 39.09383423 6.78515625 39.09765625 C5.15912476 39.10551147 5.15912476 39.10551147 3.50024414 39.11352539 C1 39 1 39 0 38 C-0.08861992 35.1883662 -0.11522355 32.40141745 -0.09765625 29.58984375 C-0.0962413 28.74780899 -0.09482635 27.90577423 -0.09336853 27.03822327 C-0.08775263 24.33794665 -0.07519748 21.63775172 -0.0625 18.9375 C-0.05748705 17.11132932 -0.05292379 15.28515734 -0.04882812 13.45898438 C-0.03862716 8.97259915 -0.01905499 4.48639145 0 0 Z " fill="#F0F4F7" transform="translate(445,657)"/>
<path d="M0 0 C8.91 0 17.82 0 27 0 C27.02290785 5.39352589 27.04283526 10.78688421 27.05493164 16.18041992 C27.05997231 18.01668875 27.06680477 19.85295354 27.07543945 21.68920898 C27.08751672 24.32276401 27.09323081 26.95626616 27.09765625 29.58984375 C27.10281754 30.41588608 27.10797882 31.24192841 27.11329651 32.09300232 C27.11349205 34.06236368 27.06204152 36.03161614 27 38 C26 39 26 39 23.49975586 39.11352539 C22.41573486 39.10828857 21.33171387 39.10305176 20.21484375 39.09765625 C19.16159912 39.09515869 18.10835449 39.09266113 17.02319336 39.09008789 C15.67491455 39.08098389 14.32663574 39.07187988 12.9375 39.0625 C8.668125 39.041875 4.39875 39.02125 0 39 C0 26.13 0 13.26 0 0 Z " fill="#F2F4F5" transform="translate(755,287)"/>
<path d="M0 0 C8.91 0 17.82 0 27 0 C27 12.54 27 25.08 27 38 C18.09 38 9.18 38 0 38 C0 25.46 0 12.92 0 0 Z " fill="#F4F7F7" transform="translate(755,711)"/>
<path d="M0 0 C8.91 0 17.82 0 27 0 C27 12.54 27 25.08 27 38 C18.09 38 9.18 38 0 38 C0 25.46 0 12.92 0 0 Z " fill="#F5F7F7" transform="translate(649,711)"/>
<path d="M0 0 C8.91 0 17.82 0 27 0 C27 12.54 27 25.08 27 38 C18.09 38 9.18 38 0 38 C0 25.46 0 12.92 0 0 Z " fill="#F5F7F7" transform="translate(755,570)"/>
<path d="M0 0 C8.91 0 17.82 0 27 0 C27 12.54 27 25.08 27 38 C18.09 38 9.18 38 0 38 C0 25.46 0 12.92 0 0 Z " fill="#F5F7F8" transform="translate(649,570)"/>
<path d="M0 0 C8.91 0 17.82 0 27 0 C27 12.54 27 25.08 27 38 C18.09 38 9.18 38 0 38 C0 25.46 0 12.92 0 0 Z " fill="#F4F6F6" transform="translate(808,429)"/>
<path d="M0 0 C8.91 0 17.82 0 27 0 C27 12.54 27 25.08 27 38 C18.09 38 9.18 38 0 38 C0 25.46 0 12.92 0 0 Z " fill="#F5F7F8" transform="translate(755,429)"/>
<path d="M0 0 C8.91 0 17.82 0 27 0 C27 12.54 27 25.08 27 38 C18.09 38 9.18 38 0 38 C0 25.46 0 12.92 0 0 Z " fill="#F5F7F8" transform="translate(649,429)"/>
<path d="M0 0 C8.91 0 17.82 0 27 0 C27 12.54 27 25.08 27 38 C18.09 38 9.18 38 0 38 C0 25.46 0 12.92 0 0 Z " fill="#F6F8F8" transform="translate(649,358)"/>
<path d="M0 0 C8.91 0 17.82 0 27 0 C27 12.54 27 25.08 27 38 C18.09 38 9.18 38 0 38 C0 25.46 0 12.92 0 0 Z " fill="#F5F7F7" transform="translate(808,287)"/>
<path d="M0 0 C8.91 0 17.82 0 27 0 C27 12.54 27 25.08 27 38 C18.09 38 9.18 38 0 38 C0 25.46 0 12.92 0 0 Z " fill="#F5F6F7" transform="translate(755,217)"/>
<path d="M0 0 C8.91 0 17.82 0 27 0 C27 12.54 27 25.08 27 38 C18.09 38 9.18 38 0 38 C0 25.46 0 12.92 0 0 Z " fill="#F4F7F7" transform="translate(649,217)"/>
<path d="M0 0 C8.58 0 17.16 0 26 0 C26 12.87 26 25.74 26 39 C17.42 39 8.84 39 0 39 C0 26.13 0 13.26 0 0 Z " fill="#F3F6F8" transform="translate(499,795)"/>
<path d="M0 0 C8.58 0 17.16 0 26 0 C26 12.87 26 25.74 26 39 C17.42 39 8.84 39 0 39 C0 26.13 0 13.26 0 0 Z " fill="#F4F7F9" transform="translate(499,726)"/>
<path d="M0 0 C8.58 0 17.16 0 26 0 C26 12.87 26 25.74 26 39 C17.42 39 8.84 39 0 39 C0 26.13 0 13.26 0 0 Z " fill="#F5F8FA" transform="translate(499,657)"/>
<path d="M0 0 C8.58 0 17.16 0 26 0 C26 12.87 26 25.74 26 39 C17.42 39 8.84 39 0 39 C0 26.13 0 13.26 0 0 Z " fill="#F6F9FB" transform="translate(392,657)"/>
<path d="M0 0 C8.58 0 17.16 0 26 0 C26 12.87 26 25.74 26 39 C17.42 39 8.84 39 0 39 C0 26.13 0 13.26 0 0 Z " fill="#F6F8F9" transform="translate(702,640)"/>
<path d="M0 0 C8.58 0 17.16 0 26 0 C26 12.87 26 25.74 26 39 C17.42 39 8.84 39 0 39 C0 26.13 0 13.26 0 0 Z " fill="#F4F7F9" transform="translate(499,450)"/>
<path d="M0 0 C8.58 0 17.16 0 26 0 C26 12.54 26 25.08 26 38 C17.42 38 8.84 38 0 38 C0 25.46 0 12.92 0 0 Z " fill="#F8FAFC" transform="translate(392,726)"/>
<path d="M0 0 C8.58 0 17.16 0 26 0 C26 12.54 26 25.08 26 38 C17.42 38 8.84 38 0 38 C0 25.46 0 12.92 0 0 Z " fill="#F9FAFA" transform="translate(808,711)"/>
<path d="M0 0 C8.58 0 17.16 0 26 0 C26 12.54 26 25.08 26 38 C17.42 38 8.84 38 0 38 C0 25.46 0 12.92 0 0 Z " fill="#F9FAFB" transform="translate(702,711)"/>
<path d="M0 0 C8.58 0 17.16 0 26 0 C26 12.54 26 25.08 26 38 C17.42 38 8.84 38 0 38 C0 25.46 0 12.92 0 0 Z " fill="#F6F9FB" transform="translate(499,588)"/>
<path d="M0 0 C8.58 0 17.16 0 26 0 C26 12.54 26 25.08 26 38 C17.42 38 8.84 38 0 38 C0 25.46 0 12.92 0 0 Z " fill="#F9FBFA" transform="translate(808,570)"/>
<path d="M0 0 C8.58 0 17.16 0 26 0 C26 12.54 26 25.08 26 38 C17.42 38 8.84 38 0 38 C0 25.46 0 12.92 0 0 Z " fill="#F9FAFB" transform="translate(702,570)"/>
<path d="M0 0 C8.58 0 17.16 0 26 0 C26 12.54 26 25.08 26 38 C17.42 38 8.84 38 0 38 C0 25.46 0 12.92 0 0 Z " fill="#F9FBFB" transform="translate(392,519)"/>
<path d="M0 0 C8.58 0 17.16 0 26 0 C26 12.54 26 25.08 26 38 C17.42 38 8.84 38 0 38 C0 25.46 0 12.92 0 0 Z " fill="#FBFCFB" transform="translate(808,358)"/>
<path d="M0 0 C8.58 0 17.16 0 26 0 C26 12.54 26 25.08 26 38 C17.42 38 8.84 38 0 38 C0 25.46 0 12.92 0 0 Z " fill="#FAFBFB" transform="translate(755,358)"/>
<path d="M0 0 C8.58 0 17.16 0 26 0 C26 12.54 26 25.08 26 38 C17.42 38 8.84 38 0 38 C0 25.46 0 12.92 0 0 Z " fill="#FBFCFC" transform="translate(702,358)"/>
<path d="M0 0 C8.58 0 17.16 0 26 0 C26 12.54 26 25.08 26 38 C17.42 38 8.84 38 0 38 C0 25.46 0 12.92 0 0 Z " fill="#FBFCFB" transform="translate(702,287)"/>
<path d="M0 0 C8.58 0 17.16 0 26 0 C26 12.54 26 25.08 26 38 C17.42 38 8.84 38 0 38 C0 25.46 0 12.92 0 0 Z " fill="#F9FAFA" transform="translate(808,217)"/>
<path d="M0 0 C8.58 0 17.16 0 26 0 C26 12.54 26 25.08 26 38 C17.42 38 8.84 38 0 38 C0 25.46 0 12.92 0 0 Z " fill="#F9FAFA" transform="translate(702,217)"/>
<path d="M0 0 C8.58 0 17.16 0 26 0 C26 12.21 26 24.42 26 37 C17.42 37 8.84 37 0 37 C0 24.79 0 12.58 0 0 Z " fill="#FBFCFD" transform="translate(392,796)"/>
<path d="M0 0 C8.58 0 17.16 0 26 0 C26 12.21 26 24.42 26 37 C17.42 37 8.84 37 0 37 C0 24.79 0 12.58 0 0 Z " fill="#FCFDFC" transform="translate(808,641)"/>
<path d="M0 0 C8.58 0 17.16 0 26 0 C26 12.21 26 24.42 26 37 C17.42 37 8.84 37 0 37 C0 24.79 0 12.58 0 0 Z " fill="#FAFCFC" transform="translate(392,589)"/>
<path d="M0 0 C8.58 0 17.16 0 26 0 C26 12.21 26 24.42 26 37 C17.42 37 8.84 37 0 37 C0 24.79 0 12.58 0 0 Z " fill="#FBFCFD" transform="translate(702,500)"/>
<path d="M0 0 C8.58 0 17.16 0 26 0 C26 12.21 26 24.42 26 37 C17.42 37 8.84 37 0 37 C0 24.79 0 12.58 0 0 Z " fill="#FBFCFB" transform="translate(808,500)"/>
<path d="M0 0 C8.58 0 17.16 0 26 0 C26 12.21 26 24.42 26 37 C17.42 37 8.84 37 0 37 C0 24.79 0 12.58 0 0 Z " fill="#FAFBFB" transform="translate(755,500)"/>
<path d="M0 0 C8.58 0 17.16 0 26 0 C26 12.21 26 24.42 26 37 C17.42 37 8.84 37 0 37 C0 24.79 0 12.58 0 0 Z " fill="#FBFCFD" transform="translate(392,451)"/>
<path d="M0 0 C8.58 0 17.16 0 26 0 C26 12.21 26 24.42 26 37 C17.42 37 8.84 37 0 37 C0 24.79 0 12.58 0 0 Z " fill="#FCFDFD" transform="translate(702,429)"/>
<path d="M0 0 C8.25 0 16.5 0 25 0 C25 12.21 25 24.42 25 37 C16.75 37 8.5 37 0 37 C0 24.79 0 12.58 0 0 Z " fill="#FCFDFD" transform="translate(446,796)"/>
<path d="M0 0 C8.25 0 16.5 0 25 0 C25 12.21 25 24.42 25 37 C16.75 37 8.5 37 0 37 C0 24.79 0 12.58 0 0 Z " fill="#FCFDFE" transform="translate(446,727)"/>
<path d="M0 0 C8.25 0 16.5 0 25 0 C25 12.21 25 24.42 25 37 C16.75 37 8.5 37 0 37 C0 24.79 0 12.58 0 0 Z " fill="#FCFDFD" transform="translate(446,589)"/>
<path d="M0 0 C8.25 0 16.5 0 25 0 C25 12.21 25 24.42 25 37 C16.75 37 8.5 37 0 37 C0 24.79 0 12.58 0 0 Z " fill="#FDFDFD" transform="translate(446,520)"/>
<path d="M0 0 C8.25 0 16.5 0 25 0 C25 12.21 25 24.42 25 37 C16.75 37 8.5 37 0 37 C0 24.79 0 12.58 0 0 Z " fill="#FCFDFE" transform="translate(500,520)"/>
<path d="M0 0 C8.25 0 16.5 0 25 0 C25 12.21 25 24.42 25 37 C16.75 37 8.5 37 0 37 C0 24.79 0 12.58 0 0 Z " fill="#FDFDFD" transform="translate(446,451)"/>
<path d="M0 0 C2.64 0 5.28 0 8 0 C8 0.33 8 0.66 8 1 C6.02 1.66 4.04 2.32 2 3 C1.67 269.31 1.34 535.62 1 810 C0.67 810 0.34 810 0 810 C0 542.7 0 275.4 0 0 Z " fill="#143253" transform="translate(607,107)"/>
<path d="M0 0 C7.59 0 15.18 0 23 0 C23 11.22 23 22.44 23 34 C15.41 34 7.82 34 0 34 C0 22.78 0 11.56 0 0 Z " fill="#F4F8FA" transform="translate(183,746)"/>
<path d="M0 0 C7.59 0 15.18 0 23 0 C23 11.22 23 22.44 23 34 C15.41 34 7.82 34 0 34 C0 22.78 0 11.56 0 0 Z " fill="#F5F8FB" transform="translate(275,691)"/>
<path d="M0 0 C7.59 0 15.18 0 23 0 C23 11.22 23 22.44 23 34 C15.41 34 7.82 34 0 34 C0 22.78 0 11.56 0 0 Z " fill="#F5F9FB" transform="translate(229,691)"/>
<path d="M0 0 C7.59 0 15.18 0 23 0 C23 11.22 23 22.44 23 34 C15.41 34 7.82 34 0 34 C0 22.78 0 11.56 0 0 Z " fill="#F4F8FB" transform="translate(275,580)"/>
<path d="M0 0 C7.59 0 15.18 0 23 0 C23 11.22 23 22.44 23 34 C15.41 34 7.82 34 0 34 C0 22.78 0 11.56 0 0 Z " fill="#F4F8FA" transform="translate(229,580)"/>
<path d="M0 0 C7.59 0 15.18 0 23 0 C23 11.22 23 22.44 23 34 C15.41 34 7.82 34 0 34 C0 22.78 0 11.56 0 0 Z " fill="#F3F8FA" transform="translate(183,580)"/>
<path d="M0 0 C7.59 0 15.18 0 23 0 C23 10.89 23 21.78 23 33 C15.41 33 7.82 33 0 33 C0 22.11 0 11.22 0 0 Z " fill="#F8FBFC" transform="translate(275,802)"/>
<path d="M0 0 C7.59 0 15.18 0 23 0 C23 10.89 23 21.78 23 33 C15.41 33 7.82 33 0 33 C0 22.11 0 11.22 0 0 Z " fill="#F7FAFB" transform="translate(229,802)"/>
<path d="M0 0 C7.59 0 15.18 0 23 0 C23 10.89 23 21.78 23 33 C15.41 33 7.82 33 0 33 C0 22.11 0 11.22 0 0 Z " fill="#F7FAFB" transform="translate(183,802)"/>
<path d="M0 0 C7.59 0 15.18 0 23 0 C23 10.89 23 21.78 23 33 C15.41 33 7.82 33 0 33 C0 22.11 0 11.22 0 0 Z " fill="#F8FBFC" transform="translate(275,747)"/>
<path d="M0 0 C7.59 0 15.18 0 23 0 C23 10.89 23 21.78 23 33 C15.41 33 7.82 33 0 33 C0 22.11 0 11.22 0 0 Z " fill="#F7FAFC" transform="translate(229,747)"/>
<path d="M0 0 C7.59 0 15.18 0 23 0 C23 10.89 23 21.78 23 33 C15.41 33 7.82 33 0 33 C0 22.11 0 11.22 0 0 Z " fill="#F6FAFB" transform="translate(275,636)"/>
<path d="M0 0 C7.59 0 15.18 0 23 0 C23 10.89 23 21.78 23 33 C15.41 33 7.82 33 0 33 C0 22.11 0 11.22 0 0 Z " fill="#F7FAFC" transform="translate(229,636)"/>
<path d="M0 0 C7.59 0 15.18 0 23 0 C23 10.89 23 21.78 23 33 C15.41 33 7.82 33 0 33 C0 22.11 0 11.22 0 0 Z " fill="#F7FAFB" transform="translate(183,636)"/>
<path d="M0 0 C7.26 0 14.52 0 22 0 C22 10.89 22 21.78 22 33 C14.74 33 7.48 33 0 33 C0 22.11 0 11.22 0 0 Z " fill="#FCFDFD" transform="translate(184,691)"/>
<path d="M0 0 C0.66 0.66 1.32 1.32 2 2 C0.25311063 3.77399627 -1.49733451 5.54422553 -3.25 7.3125 C-3.74113281 7.81201172 -4.23226562 8.31152344 -4.73828125 8.82617188 C-7.35140196 11.45671339 -9.95657911 13.87685162 -13 16 C-13.66 15.67 -14.32 15.34 -15 15 C-10.05 10.05 -5.1 5.1 0 0 Z " fill="#5CBE81" transform="translate(221,166)"/>
</svg>
